# xmcd
#
# Track frame offsets:
#	150
#	16869
#	30146
#	45973
#	62375
#	77186
#	91780
#	101697
#	118296
#	138351
#	155815
#	173330
#
# Disc length: 2541 seconds
#
# Revision: 1
# Processed by: cddbd v1.4PL0 Copyright (c) Steve Scherf et al.
# Submitted via: audiograbber 1.80
#
DISCID=8209eb0c
DTITLE=Коллекция СВ - Москва и москвичи (1985-1986)
DYEAR=1900
DGENRE=
TTITLE0=Смотри в перед
TTITLE1=Осень
TTITLE2=Майор Ковалев
TTITLE3=От уютных судеб
TTITLE4=Колыбельная
TTITLE5=Коле
TTITLE6=Я для песен
TTITLE7=Смоленский гастроном
TTITLE8=Женщине
TTITLE9=Белый пароход
TTITLE10=В добрый путь
TTITLE11=Лене
EXTD=
EXTT0=
EXTT1=
EXTT2=
EXTT3=
EXTT4=
EXTT5=
EXTT6=
EXTT7=
EXTT8=
EXTT9=
EXTT10=
EXTT11=
PLAYORDER=
